<svg width="169" height="65" viewBox="0 0 169 65" fill="none" xmlns="http://www.w3.org/2000/svg">
<rect width="169" height="65" rx="4" fill="#252323"/>
<path d="M111.95 26C111.141 26 110.365 26.2283 109.793 26.6346C109.221 27.0409 108.9 27.592 108.9 28.1667V34.6667H60.1V28.1667C60.1 27.592 59.7787 27.0409 59.2067 26.6346C58.6347 26.2283 57.8589 26 57.05 26C56.2411 26 55.4653 26.2283 54.8933 26.6346C54.3213 27.0409 54 27.592 54 28.1667V36.8333C54 37.408 54.3213 37.9591 54.8933 38.3654C55.4653 38.7717 56.2411 39 57.05 39H111.95C112.759 39 113.535 38.7717 114.107 38.3654C114.679 37.9591 115 37.408 115 36.8333V28.1667C115 27.592 114.679 27.0409 114.107 26.6346C113.535 26.2283 112.759 26 111.95 26Z" fill="#F8F8F8"/>
</svg>
